<?xml version="1.0" encoding="UTF-8"?>
<svg version="1.1" xmlns="http://www.w3.org/2000/svg" width="1000" height="373">
<path d="M0 0 C0.93093979 0.27642838 1.86187958 0.55285675 2.82102966 0.83766174 C5.88349538 1.75006983 8.94144876 2.67663957 11.99926758 3.60449219 C14.13188079 4.24557387 16.26463958 4.88617144 18.39753723 5.52630615 C22.86043695 6.86830893 27.32105458 8.21759618 31.78027344 9.57177734 C37.49556661 11.30653883 43.21676815 13.02082577 48.93992138 14.72945023 C53.34267549 16.04673141 57.74177219 17.37589937 62.13988686 18.70858002 C64.24823102 19.34563509 66.35777817 19.97872281 68.46852684 20.6077652 C71.41647832 21.48801425 74.35903707 22.38441462 77.30078125 23.28515625 C78.17307373 23.54194656 79.04536621 23.79873688 79.9440918 24.06330872 C84.3707012 25.43850808 87.57597171 26.54992095 90.45629883 30.40136719 C91.45341059 33.39270247 91.52479177 35.07703597 91.38876343 38.17720032 C91.34834742 39.15028987 91.3079314 40.12337942 91.26629066 41.12595654 C91.21603926 42.18533082 91.16578785 43.2447051 91.11401367 44.33618164 C91.06511679 45.4479115 91.0162199 46.55964136 90.96584129 47.70506001 C90.38321773 60.62311486 89.67019333 73.53433194 88.93286133 86.44433594 C88.86029491 87.71576258 88.7877285 88.98718922 88.7129631 90.29714394 C88.40774184 95.63142389 88.10154459 100.96564311 87.79154396 106.29964733 C87.35227736 113.85963941 86.92208116 121.42003258 86.50361121 128.98120517 C86.16944575 135.00417495 85.82087293 141.02622678 85.46726608 147.04808998 C85.32006967 149.59113447 85.17736638 152.13444325 85.0392952 154.6779995 C84.84638466 158.21447896 84.63700028 161.74961917 84.42358398 165.28491211 C84.34393654 166.84872116 84.34393654 166.84872116 84.26268005 168.44412231 C83.9287634 173.67693958 83.63611215 178.03311474 80.45629883 182.40136719 C75.92108136 185.54105187 71.78507137 185.79853808 66.43139648 185.65014648 C65.65023468 185.64083099 64.86907288 185.6315155 64.0642395 185.62191772 C61.49915794 185.58772315 58.93504672 185.53180086 56.37036133 185.47558594 C54.58533759 185.44753406 52.80029195 185.42084566 51.01522827 185.39546204 C46.32962829 185.32518239 41.64455474 185.23643678 36.95935059 185.14379883 C32.1733576 185.05245146 27.38709752 184.97863086 22.60083008 184.90332031 C13.21897617 184.75312309 3.83758508 184.58340983 -5.54370117 184.40136719 C-3.16644846 182.49337694 -0.79304591 180.58960239 1.63989258 178.75292969 C24.62764241 161.1435962 39.56415591 137.76180693 48.45629883 110.40136719 C48.00641602 111.05621094 47.5565332 111.71105469 47.09301758 112.38574219 C31.87891625 133.97208235 12.52992929 149.78589916 -12.54370117 158.40136719 C-13.78893555 158.830625 -15.03416992 159.25988281 -16.31713867 159.70214844 C-25.09290422 162.55626947 -34.0488721 164.42410015 -43.10620117 166.15136719 C-44.7367041 166.46763062 -44.7367041 166.46763062 -46.40014648 166.7902832 C-52.59311724 167.91715993 -58.69673724 168.61626022 -64.97314453 168.96484375 C-65.70526909 169.00795685 -66.43739365 169.05106995 -67.1917038 169.0954895 C-68.97554642 169.20015107 -70.75960364 169.30114459 -72.54370117 169.40136719 C-72.15330434 163.97036118 -71.76262176 158.53937577 -71.37182617 153.10839844 C-71.31122576 152.26603449 -71.25062534 151.42367054 -71.18818855 150.55578041 C-70.45057543 140.30466021 -69.71027447 130.05374206 -68.96435547 119.80322266 C-68.75661333 116.94736278 -68.54887859 114.09150236 -68.34115028 111.23564148 C-68.20244305 109.32893027 -68.06368832 107.42222252 -67.9248867 105.51551819 C-67.14132655 94.74637937 -66.36946178 83.97666415 -65.631073 73.20433044 C-65.2913076 68.264339 -64.94225697 63.32503318 -64.59118652 58.38583374 C-64.43521819 56.15603345 -64.2838902 53.92590346 -64.1373291 51.69546509 C-63.9368883 48.65116214 -63.7207624 45.60836958 -63.50073242 42.56542969 C-63.44776505 41.69537796 -63.39479767 40.82532623 -63.34022522 39.9289093 C-62.99056187 35.3450046 -62.44816588 32.1520322 -59.54370117 28.40136719 C-55.51843593 25.15154709 -52.30905697 25.0714974 -47.23120117 25.21386719 C-45.34981445 25.25447266 -45.34981445 25.25447266 -43.43041992 25.29589844 C-42.47780273 25.33070312 -41.52518555 25.36550781 -40.54370117 25.40136719 C-40.50631836 24.8096875 -40.46893555 24.21800781 -40.43041992 23.60839844 C-40.03550739 18.8617047 -39.66075238 15.21109645 -36.54370117 11.40136719 C-32.95566745 8.61067429 -28.88330138 9.25671385 -24.54370117 9.40136719 C-24.38514648 8.78648438 -24.2265918 8.17160156 -24.06323242 7.53808594 C-22.16831711 0.9739318 -22.16831711 0.9739318 -19.29370117 -1.66113281 C-12.58351736 -3.94869547 -6.49674434 -1.98668362 0 0 Z " fill="#FE7206" transform="translate(129.543701171875,74.5986328125)"/>
<path d="M0 0 C1.83425018 13.53166362 2.36248219 26.85261698 2.3125 40.5 C2.31100952 41.50824829 2.30951904 42.51649658 2.3079834 43.55529785 C2.2664598 59.20473814 1.73797757 74.55329145 -1 90 C-1.14985352 90.85352051 -1.29970703 91.70704102 -1.45410156 92.58642578 C-3.99071713 106.43548508 -8.11252442 119.20211399 -16 131 C-16.5775 131.886875 -17.155 132.77375 -17.75 133.6875 C-26.61072168 142.79435284 -38.57170805 148.02724622 -51.24414062 148.24145508 C-58.96397141 148.26916161 -65.81258451 148.14528376 -73 145 C-73.82628906 144.64808594 -74.65257812 144.29617188 -75.50390625 143.93359375 C-81.66313915 141.08436082 -86.81243891 137.34802826 -92 133 C-90.85593308 127.77329832 -89.69766729 122.55013602 -88.52148438 117.33056641 C-88.0623009 115.27842903 -87.61606676 113.22340324 -87.171875 111.16796875 C-86.92953125 110.10191406 -86.6871875 109.03585938 -86.4375 107.9375 C-86.22996094 106.99777344 -86.02242187 106.05804688 -85.80859375 105.08984375 C-85.40833984 104.05537109 -85.40833984 104.05537109 -85 103 C-83.515 102.505 -83.515 102.505 -82 102 C-79.43359375 103.328125 -79.43359375 103.328125 -76.4375 105.25 C-68.50229974 110.02448872 -61.61321216 112.96698182 -52.25 111.5625 C-45.45964809 109.86491202 -41.46782491 104.74723791 -38 99 C-36.4877715 95.72350491 -35.18683301 92.40690886 -34 89 C-35.85625 89.495 -35.85625 89.495 -37.75 90 C-51.1598979 92.63989431 -65.54723744 92.6927979 -77.4453125 85.52734375 C-86.80760561 78.99227777 -90.77231023 69.91585794 -93 59 C-93.43652367 55.07195752 -93.52363115 51.20018297 -93.5 47.25 C-93.49718018 46.17741943 -93.49436035 45.10483887 -93.49145508 43.99975586 C-93.19734679 29.07895378 -89.2623003 15.20766765 -85 1 C-73.78 1 -62.56 1 -51 1 C-51.79262605 5.75575631 -52.78119581 9.51802942 -54.375 14 C-60.84435806 32.79856442 -60.84435806 32.79856442 -58.75 52.0625 C-56.98719476 55.02149452 -55.88038906 56.22108827 -53 58 C-44.91475941 59.59975349 -37.15193385 56.57596692 -30 53 C-30 36.5 -30 20 -30 3 C-25.606875 2.505 -21.21375 2.01 -16.6875 1.5 C-15.30522217 1.34337891 -13.92294434 1.18675781 -12.4987793 1.02539062 C-10.86549683 0.84266602 -10.86549683 0.84266602 -9.19921875 0.65625 C-8.08377686 0.53056641 -6.96833496 0.40488281 -5.8190918 0.27539062 C-3 0 -3 0 0 0 Z " fill="#FE6D00" transform="translate(618,112)"/>
<path d="M0 0 C10.67277332 7.28732372 17.95589068 17.84915265 21.34375 30.421875 C25.29688016 52.34377864 23.09656206 77.33743291 10.98046875 96.5234375 C0.42929444 111.1978162 -11.92231136 121.11049082 -29.96875 124.234375 C-39.81782658 125.48263509 -49.94508518 122.87264466 -57.90625 116.921875 C-59.2867821 115.72239629 -60.64359096 114.49476048 -61.96875 113.234375 C-62.50886719 112.74582031 -63.04898438 112.25726563 -63.60546875 111.75390625 C-76.9537335 98.12536298 -79.22542047 76.41122498 -79.2175293 58.38305664 C-78.97891 38.66005563 -72.64051057 22.34438575 -59.09375 7.921875 C-43.4168121 -6.96360584 -18.87560876 -11.22601995 0 0 Z M-40.65625 37.984375 C-46.9746702 46.86431691 -47.89318466 57.42218017 -46.34375 68.046875 C-44.90226033 74.63928774 -42.1849147 79.26445083 -37.15625 83.734375 C-33.27968304 85.55864181 -30.1305704 86.13138872 -25.96875 85.234375 C-19.37256198 82.47091939 -15.83968363 76.50692998 -12.96875 70.234375 C-9.46314615 59.99432165 -8.37893496 50.32240596 -12.96875 40.234375 C-15.45258425 36.73285866 -18.07388691 33.18180655 -21.96875 31.234375 C-30.35735995 30.31404189 -34.69366814 31.88312845 -40.65625 37.984375 Z " fill="#263541" transform="translate(800.96875,118.765625)"/>
<path d="M0 0 C2.03029768 1.44523098 3.87458518 2.98733292 5.734375 4.64453125 C6.31574219 5.09957031 6.89710938 5.55460937 7.49609375 6.0234375 C11.91719995 9.82856935 14.4387734 14.38986961 17.046875 19.51953125 C17.55347656 20.50928955 17.55347656 20.50928955 18.0703125 21.51904297 C26.22777098 38.36650656 25.10868934 62.05023267 19.47509766 79.59472656 C15.88427982 89.53161074 10.84009386 98.78740304 3.734375 106.64453125 C3.20457031 107.25425781 2.67476562 107.86398438 2.12890625 108.4921875 C-7.46540877 118.86134031 -19.85223296 124.28295286 -33.828125 124.95703125 C-45.28068664 124.80156661 -54.27175208 120.39146559 -62.3515625 112.64453125 C-77.10628111 97.28645983 -78.7870782 75.20574751 -78.5390625 54.97265625 C-78.02079863 37.6800895 -71.2908603 21.20473833 -59.265625 8.64453125 C-43.80416872 -5.74726454 -18.73097455 -11.20628995 0 0 Z M-38.265625 35.64453125 C-45.14805783 44.62023859 -47.18553408 53.50176157 -46.265625 64.64453125 C-45.11450241 72.92214915 -42.83260512 79.19692274 -36.265625 84.64453125 C-32.64631802 85.85096691 -30.07331495 85.96721684 -26.265625 85.64453125 C-18.51147092 81.68833019 -13.65253884 75.17699677 -10.9609375 67.01171875 C-10.09094234 62.79859611 -9.83164308 58.75128742 -9.765625 54.45703125 C-9.74709473 53.70897217 -9.72856445 52.96091309 -9.70947266 52.19018555 C-9.77865353 46.04054842 -11.4226191 40.57898153 -15.78369141 36.07763672 C-20.2839198 32.23924683 -23.11810816 31.26255173 -28.890625 31.3828125 C-32.72711822 31.80558396 -35.48739423 33.05240207 -38.265625 35.64453125 Z " fill="#263541" transform="translate(910.265625,118.35546875)"/>
<path d="M0 0 C10.56 0 21.12 0 32 0 C32 9.55062678 31.97149733 18.98085128 31.5 28.5 C31.45230469 29.52480469 31.40460937 30.54960937 31.35546875 31.60546875 C31.24028087 34.0704894 31.1218096 36.53529932 31 39 C31.3717334 38.46745605 31.7434668 37.93491211 32.12646484 37.38623047 C32.64934082 36.63744629 33.1722168 35.88866211 33.7109375 35.1171875 C34.29133789 34.28541992 34.87173828 33.45365234 35.46972656 32.59667969 C36.74578558 30.77383167 38.02643404 28.95418829 39.31152344 27.13769531 C42.23723771 22.99648108 45.12598031 18.86081325 47.8046875 14.5546875 C48.22314941 13.90516113 48.64161133 13.25563477 49.07275391 12.58642578 C50.18052058 10.85838329 51.25549998 9.10944741 52.328125 7.359375 C55.77187875 4.31839946 57.62395473 4.4383485 62.08398438 4.70410156 C63.04626953 4.80174805 64.00855469 4.89939453 65 5 C66.07056641 5.10022461 67.14113281 5.20044922 68.24414062 5.30371094 C71.7105643 5.66104359 75.1666253 6.07204059 78.625 6.5 C79.81996094 6.64308594 81.01492188 6.78617187 82.24609375 6.93359375 C85.16473691 7.28383093 88.08262178 7.63940361 91 8 C89.2491945 11.00758776 87.46749776 13.81415167 85.25 16.49609375 C84.46955322 17.44669678 84.46955322 17.44669678 83.67333984 18.41650391 C82.84503662 19.41689697 82.84503662 19.41689697 82 20.4375 C80.82461917 21.87035458 79.65015528 23.30396178 78.4765625 24.73828125 C77.89036133 25.4545166 77.30416016 26.17075195 76.70019531 26.90869141 C72.8597274 31.63262136 69.1248095 36.44007911 65.37792969 41.23828125 C63.9143154 43.10954998 62.44604415 44.97708577 60.9765625 46.84375 C60.47850098 47.47651855 59.98043945 48.10928711 59.46728516 48.76123047 C58.51664475 49.96874941 57.56581066 51.1761159 56.61474609 52.38330078 C55.40647952 53.91957072 54.20303386 55.45962895 53 57 C52.38125 57.70898438 51.7625 58.41796875 51.125 59.1484375 C49.82080143 60.92223667 49.82080143 60.92223667 50.0390625 62.98828125 C51.34759098 65.7276803 53.08129583 67.20131137 55.375 69.1875 C56.73625 70.37279297 56.73625 70.37279297 58.125 71.58203125 C61.76063294 74.6397171 65.44990994 77.62736022 69.14453125 80.61328125 C72.73175605 83.61163194 76.14242603 86.77457561 79.56298828 89.9597168 C84.1788132 94.22939272 89.02541016 98.15900032 94 102 C90.70045982 109.23976777 84.39254981 114.66306262 78.80078125 120.16796875 C76.68853476 122.31687027 74.80733925 124.59021434 73 127 C68.5688425 126.49895039 66.55626888 125.06423223 63.375 122 C59.0387358 117.93915583 54.57152508 114.14836885 49.953125 110.4140625 C45.99861937 107.18141107 42.1139547 103.86892919 38.23901367 100.54150391 C35.30222124 98.00565901 35.30222124 98.00565901 32 96 C31.67 108.21 31.34 120.42 31 133 C20.44 133 9.88 133 -1 133 C-1.027724 122.27081148 -1.05114366 111.54170664 -1.0625 100.8125 C-1.06378403 99.60808258 -1.06378403 99.60808258 -1.06509399 98.3793335 C-1.08777854 74.24842622 -0.93230225 50.1271389 -0.5 26 C-0.48804218 25.33220646 -0.47608437 24.66441292 -0.46376419 23.97638321 C-0.31971363 15.98401033 -0.16168888 7.99205028 0 0 Z " fill="#263541" transform="translate(629,108)"/>
<path d="M0 0 C14.85 0 29.7 0 45 0 C48.35689413 24.6633945 51.4262297 49.35735777 54.42871094 74.06616211 C55.11868832 79.74178254 55.81536542 85.41656087 56.51343155 91.09119129 C57.05578882 95.50976729 57.59333707 99.92891878 58.12957001 104.34824181 C58.38453916 106.44271277 58.64128492 108.53696831 58.89990997 110.63099098 C59.25901032 113.54221842 59.6112698 116.45419871 59.96191406 119.36645508 C60.12080109 120.6358065 60.12080109 120.6358065 60.28289795 121.93080139 C60.37808716 122.73281982 60.47327637 123.53483826 60.5713501 124.36116028 C60.65464695 125.04395963 60.7379438 125.72675898 60.8237648 126.43024921 C61.08766265 130.27824167 61 134.14296902 61 138 C50.44 138 39.88 138 29 138 C27.67688401 135.35376801 27.68050714 133.09900911 27.46484375 130.14453125 C27.33432617 128.37432617 27.33432617 128.37432617 27.20117188 126.56835938 C27.0706543 124.70920898 27.0706543 124.70920898 26.9375 122.8125 C26.84662109 121.59240234 26.75574219 120.37230469 26.66210938 119.11523438 C26.24720917 113.37214211 26 107.76991146 26 102 C21.05 102.33 16.1 102.66 11 103 C9.68 111.91 8.36 120.82 7 130 C-4.22 130 -15.44 130 -27 130 C-23.74512733 112.86126149 -20.32960394 95.77347702 -16.69921875 78.7109375 C-16.21290722 76.41643699 -15.7268125 74.12189052 -15.24092102 71.82730103 C-13.98219399 65.88583547 -12.72059093 59.94498448 -11.45831299 54.00427246 C-9.93328956 46.82389847 -8.41197176 39.6427385 -6.89000702 32.4617157 C-4.59612106 21.64055083 -2.29763543 10.82037241 0 0 Z M20 40 C19.32555232 44.040408 18.66182413 48.08250666 18 52.125 C17.80921875 53.26710938 17.6184375 54.40921875 17.421875 55.5859375 C17.24140625 56.69453125 17.0609375 57.803125 16.875 58.9453125 C16.70742188 59.96125488 16.53984375 60.97719727 16.3671875 62.02392578 C15.99413223 65.0475586 15.9365158 67.95672597 16 71 C18.64 71 21.28 71 24 71 C23.01 60.77 22.02 50.54 21 40 C20.67 40 20.34 40 20 40 Z " fill="#FE6D00" transform="translate(359,111)"/>
<path d="M0 0 C0.77943466 0.00222061 1.55886932 0.00444122 2.36192322 0.00672913 C3.24276077 0.00680466 4.12359833 0.00688019 5.03112793 0.00695801 C5.98841293 0.01211929 6.94569794 0.01728058 7.93199158 0.02259827 C9.39480812 0.02472069 9.39480812 0.02472069 10.88717651 0.02688599 C14.01542675 0.03250319 17.14360656 0.04505859 20.27183533 0.05775452 C22.38706867 0.0627673 24.50230313 0.06733059 26.61753845 0.07142639 C31.81482908 0.0824782 37.01207494 0.09962941 42.20933533 0.12025452 C43.72932788 7.95272986 44.8682138 15.78338179 45.81333923 23.70423889 C45.95993484 24.91046906 46.10653046 26.11669922 46.25756836 27.35948181 C46.65449855 30.63136733 47.04851363 33.9035867 47.44105959 37.1760006 C47.85394395 40.61280016 48.27033015 44.04917568 48.68623352 47.48561096 C49.38271879 53.24473939 50.07664484 59.00417154 50.76890564 64.7638092 C51.56908804 71.42117971 52.37286543 78.07810844 53.17864478 84.73480368 C53.95564877 91.15412066 54.73061594 97.57368174 55.50448227 103.99337769 C55.83325026 106.72065149 56.16264493 109.44784853 56.49252701 112.17498779 C56.9518584 115.97354509 57.40816331 119.77246252 57.86412048 123.57142639 C58.00123947 124.70285065 58.13835846 125.8342749 58.27963257 126.99998474 C58.40295456 128.03156708 58.52627655 129.06314941 58.65333557 130.12599182 C58.81536185 131.47204121 58.81536185 131.47204121 58.98066139 132.84528351 C59.20933533 135.12025452 59.20933533 135.12025452 59.20933533 138.12025452 C48.31933533 138.12025452 37.42933533 138.12025452 26.20933533 138.12025452 C25.03292045 126.12082275 23.93866792 114.15424222 23.20933533 102.12025452 C18.25933533 102.12025452 13.30933533 102.12025452 8.20933533 102.12025452 C8.08816345 103.30361389 7.96699158 104.48697327 7.84214783 105.70619202 C7.67311937 107.30257187 7.5038347 108.8989246 7.33433533 110.49525452 C7.25570251 111.26998108 7.1770697 112.04470764 7.09605408 112.84291077 C6.46205416 118.74398689 5.38456474 124.24410744 4.20933533 130.12025452 C-6.68066467 130.12025452 -17.57066467 130.12025452 -28.79066467 130.12025452 C-27.66563405 118.86994825 -27.66563405 118.86994825 -26.7280426 114.40673828 C-26.51775925 113.39315247 -26.30747589 112.37956665 -26.09082031 111.33526611 C-25.86221817 110.26005203 -25.63361603 109.18483795 -25.39808655 108.07704163 C-25.15570755 106.91651276 -24.91332855 105.75598389 -24.66360474 104.56028748 C-23.867403 100.75494694 -23.06362352 96.95125396 -22.25941467 93.14759827 C-21.70187421 90.49645708 -21.14569001 87.8450317 -20.58937073 85.19363403 C-19.42626069 79.65447875 -18.2589385 74.11622421 -17.08900452 68.57850647 C-15.73557379 62.17200113 -14.38863285 55.76415738 -13.04514456 49.35556024 C-11.75067866 43.18143015 -10.45194696 37.0082052 -9.15115356 30.83540535 C-8.59798631 28.2101026 -8.0462801 25.58449905 -7.49572754 22.95864677 C-6.7286112 19.30460822 -5.95663032 15.65163224 -5.1832428 11.99891663 C-4.95464066 10.90548447 -4.72603851 9.81205231 -4.49050903 8.68548584 C-4.28022568 7.69727844 -4.06994232 6.70907104 -3.85328674 5.69091797 C-3.67114876 4.82728103 -3.48901077 3.96364408 -3.30135345 3.07383633 C-2.5424511 0.17074175 -2.5424511 0.17074175 0 0 Z M17.20933533 42.12025452 C16.53755269 46.20276334 15.87279591 50.28638568 15.20933533 54.37025452 C14.92316345 56.1085553 14.92316345 56.1085553 14.63121033 57.88197327 C14.45074158 58.99701233 14.27027283 60.11205139 14.08433533 61.26087952 C13.83296814 62.80050354 13.83296814 62.80050354 13.57652283 64.37123108 C13.12107242 67.31881299 13.12107242 67.31881299 13.20933533 71.12025452 C15.84933533 71.12025452 18.48933533 71.12025452 21.20933533 71.12025452 C20.97331926 67.15010007 20.72486633 63.1809431 20.46470642 59.21229553 C20.37792132 57.86127586 20.29457719 56.51003066 20.21470642 55.15858459 C20.09951159 53.21947159 19.97103409 51.2811619 19.84214783 49.34291077 C19.7688324 48.17510071 19.69551697 47.00729065 19.61997986 45.80409241 C19.48446716 44.9184259 19.34895447 44.0327594 19.20933533 43.12025452 C18.54933533 42.79025452 17.88933533 42.46025452 17.20933533 42.12025452 Z " fill="#FE6D00" transform="translate(457.79066467285156,110.87974548339844)"/>
<path d="M0 0 C1.79005517 5.68013178 2.75468383 11.29343388 3.5625 17.1875 C3.75102539 18.49170898 3.75102539 18.49170898 3.94335938 19.82226562 C5.70939361 32.40641533 6.23881961 44.87340954 6.25 57.5625 C6.25100708 58.35825439 6.25201416 59.15400879 6.25305176 59.97387695 C6.23583277 80.1079332 5.48449227 103.22400853 -8.8125 119 C-19.0381604 128.56594037 -32.14878208 132.52741438 -45.94458008 132.42163086 C-57.01618743 132.0239193 -66.71012882 127.83458467 -76 122 C-76.67675781 121.57589844 -77.35351562 121.15179688 -78.05078125 120.71484375 C-79.75 119.5 -79.75 119.5 -82 117 C-81.65844835 112.83835797 -80.47317579 109.24260973 -78.93359375 105.3828125 C-78.53076172 104.36445313 -78.12792969 103.34609375 -77.71289062 102.296875 C-77.08157227 100.72679687 -77.08157227 100.72679687 -76.4375 99.125 C-76.01275391 98.05507812 -75.58800781 96.98515625 -75.15039062 95.8828125 C-74.10553151 93.25305474 -73.05526218 90.62559658 -72 88 C-68.21081065 88.83500912 -65.4988766 90.3928631 -62.1875 92.4375 C-55.44986026 96.40993409 -50.01335599 98.79094734 -42.140625 97.5859375 C-37.57478962 96.33616504 -35.14471647 93.9267505 -32.81640625 90.0078125 C-22.05752675 66.59838237 -29.20963112 35.60242407 -32.64868164 11.0925293 C-32.95940804 8.35731644 -33.06905854 5.74852973 -33 3 C-21.9538171 1.36058092 -11.17926753 -0.18031077 0 0 Z " fill="#FE6D00" transform="translate(327,109)"/>
<path d="M0 0 C0.93093979 0.27642838 1.86187958 0.55285675 2.82102966 0.83766174 C5.88349538 1.75006983 8.94144876 2.67663957 11.99926758 3.60449219 C14.13188079 4.24557387 16.26463958 4.88617144 18.39753723 5.52630615 C22.86043695 6.86830893 27.32105458 8.21759618 31.78027344 9.57177734 C37.49556661 11.30653883 43.21676815 13.02082577 48.93992138 14.72945023 C53.34267549 16.04673141 57.74177219 17.37589937 62.13988686 18.70858002 C64.24823102 19.34563509 66.35777817 19.97872281 68.46852684 20.6077652 C71.41647832 21.48801425 74.35903707 22.38441462 77.30078125 23.28515625 C78.17307373 23.54194656 79.04536621 23.79873688 79.9440918 24.06330872 C84.3707012 25.43850808 87.57597171 26.54992095 90.45629883 30.40136719 C91.45341059 33.39270247 91.52479177 35.07703597 91.38876343 38.17720032 C91.34834742 39.15028987 91.3079314 40.12337942 91.26629066 41.12595654 C91.21603926 42.18533082 91.16578785 43.2447051 91.11401367 44.33618164 C91.06511679 45.4479115 91.0162199 46.55964136 90.96584129 47.70506001 C90.38321773 60.62311486 89.67019333 73.53433194 88.93286133 86.44433594 C88.86029491 87.71576258 88.7877285 88.98718922 88.7129631 90.29714394 C88.40774184 95.63142389 88.10154459 100.96564311 87.79154396 106.29964733 C87.35227736 113.85963941 86.92208116 121.42003258 86.50361121 128.98120517 C86.16944575 135.00417495 85.82087293 141.02622678 85.46726608 147.04808998 C85.32006967 149.59113447 85.17736638 152.13444325 85.0392952 154.6779995 C84.84638466 158.21447896 84.63700028 161.74961917 84.42358398 165.28491211 C84.37048569 166.32745148 84.31738739 167.36999084 84.26268005 168.44412231 C83.92569696 173.72499378 83.49309748 177.88416162 80.45629883 182.40136719 C77.76879883 183.77636719 77.76879883 183.77636719 75.45629883 184.40136719 C75.78629883 183.74136719 76.11629883 183.08136719 76.45629883 182.40136719 C77.11629883 182.40136719 77.77629883 182.40136719 78.45629883 182.40136719 C81.03026186 177.25344112 80.95339938 172.21827033 79.97583008 166.67871094 C79.23835689 162.02653045 79.07386613 157.37898918 78.85083008 152.67871094 C78.63450925 148.50894049 78.15060201 144.52345063 77.45629883 140.40136719 C77.28248499 137.8576155 77.13633561 135.3224569 77.01879883 132.77636719 C76.70022647 126.60734992 76.19805332 120.48096503 75.54614258 114.33886719 C74.3362157 102.58237398 73.39436303 90.80713442 72.45629883 79.02636719 C72.28983891 76.94301732 72.12317276 74.85968393 71.95629883 72.77636719 C71.83291138 71.23441681 71.83291138 71.23441681 71.70703125 69.66131592 C71.45882375 66.59660586 71.20177194 63.5327173 70.94458008 60.46875 C70.60288854 56.36065565 70.31571373 52.25308172 70.06176758 48.13867188 C69.92253737 46.15070965 69.78321812 44.16275366 69.64379883 42.17480469 C69.57515625 40.80625839 69.57515625 40.80625839 69.50512695 39.4100647 C69.40941406 38.13611343 69.40941406 38.13611343 69.31176758 36.83642578 C69.26689209 36.09766205 69.2220166 35.35889832 69.17578125 34.5977478 C68.01272238 31.04725113 66.46477796 29.61375829 63.45629883 27.40136719 C60.08476265 26.66981383 56.78135871 26.71086069 53.34179688 26.74194336 C52.3266954 26.73145966 51.31159393 26.72097595 50.26573181 26.71017456 C46.91618325 26.68141255 43.56766757 26.68771778 40.21801758 26.69433594 C37.89344486 26.68122168 35.56888354 26.6659183 33.24433899 26.64851379 C27.13034062 26.60861961 21.01664004 26.59847043 14.90252686 26.59448242 C8.66189515 26.58515942 2.42143903 26.54775103 -3.8190918 26.51269531 C-16.06062002 26.44807424 -28.30201732 26.41487113 -40.54370117 26.40136719 C-40.41066609 24.79666683 -40.26984563 23.19261061 -40.12573242 21.58886719 C-40.04814697 20.69554688 -39.97056152 19.80222656 -39.890625 18.88183594 C-39.34033002 14.94728495 -37.97489953 12.51452147 -34.85620117 10.08886719 C-31.37581917 9.05415903 -28.16714251 9.28058581 -24.54370117 9.40136719 C-24.38514648 8.78648438 -24.2265918 8.17160156 -24.06323242 7.53808594 C-22.16831711 0.9739318 -22.16831711 0.9739318 -19.29370117 -1.66113281 C-12.58351736 -3.94869547 -6.49674434 -1.98668362 0 0 Z " fill="#2B3740" transform="translate(129.543701171875,74.5986328125)"/>
<path d="M0 0 C2.9375 1.9375 2.9375 1.9375 5 5 C5.63406731 8.12584061 5.6469994 10.87575066 5 14 C3.125 16.5625 3.125 16.5625 1 18 C0.34 18 -0.32 18 -1 18 C-0.95536735 22.09004356 -0.88504917 26.17882027 -0.79248047 30.26806641 C-0.76452356 31.65466476 -0.74318529 33.041415 -0.72900391 34.42822266 C-0.60676285 45.71514678 0.81956833 56.52962898 9 65 C18.52697278 72.76869908 27.95060586 73.81290798 40 73 C47.5752844 71.66246985 54.37297641 66.57231241 58.8671875 60.4609375 C62.85860141 53.98682594 64.09773328 49.4504401 64.31640625 41.828125 C64.3475779 40.8044986 64.3475779 40.8044986 64.37937927 39.76019287 C64.44452052 37.59022644 64.50359404 35.42014376 64.5625 33.25 C64.60571897 31.77472779 64.64933432 30.29946713 64.69335938 28.82421875 C64.80016518 25.21626834 64.90153153 21.60818867 65 18 C64.38125 17.71125 63.7625 17.4225 63.125 17.125 C61 16 61 16 59 14 C58.12200595 9.29580032 58.37621482 5.92622648 61.0625 1.9375 C64.75024203 -0.49484049 66.65504309 -0.62070813 71 0 C75.6 2.2 75.6 2.2 77 5 C77.52329267 9.44369837 77.82592598 12.87123449 75.125 16.5625 C73 18 73 18 71 18 C71.02618408 18.81041748 71.05236816 19.62083496 71.0793457 20.45581055 C71.16573063 23.52914559 71.22780153 26.60185252 71.2746582 29.67602539 C71.31149445 31.63405039 71.37510037 33.59151427 71.43945312 35.54882812 C71.61057702 48.99916643 67.75136807 59.98713999 58.37890625 69.67578125 C54.08302331 73.67402796 49.41201513 75.85062536 44 78 C43.01 78.495 43.01 78.495 42 79 C26.92897257 79.80214271 15.69692033 78.70386223 4.0546875 68.25390625 C-5.3872008 58.42371518 -6.68765948 47.04079536 -6.5 34 C-6.46121982 31.24915036 -6.45502364 28.50103315 -6.46875 25.75 C-6.45263672 24.54859375 -6.43652344 23.3471875 -6.41992188 22.109375 C-6.71701057 18.80623392 -6.71701057 18.80623392 -9.47070312 16.703125 C-10.72270508 15.86007813 -10.72270508 15.86007813 -12 15 C-13.59616743 11.80766515 -13.51466114 8.46538503 -13 5 C-9.27612341 0.15896044 -6.0107514 -0.61126285 0 0 Z " fill="#31383F" transform="translate(102,113)"/>
<path d="M0 0 C0.87563095 0.26013382 1.7512619 0.52026764 2.65342712 0.7882843 C5.53058711 1.64578382 8.4033489 2.51709036 11.27612305 3.38916016 C13.2789524 3.99037216 15.28198185 4.59091793 17.28520203 5.19082642 C21.47388789 6.44749486 25.66050806 7.7107595 29.84570312 8.97900391 C35.21722408 10.60638208 40.59292033 12.21942213 45.97013569 13.82787132 C50.10217891 15.06514932 54.23227806 16.30881114 58.36177635 17.55455399 C60.34406124 18.15193779 62.32687127 18.74758181 64.31020546 19.34147263 C67.07464804 20.17054669 69.83644386 21.00789675 72.59765625 21.84765625 C73.42103485 22.09293564 74.24441345 22.33821503 75.09274292 22.59092712 C80.74659147 24.32447232 80.74659147 24.32447232 82.9753418 26.55322266 C76.65108971 25.87921932 70.35995894 25.07702278 64.06518555 24.17041016 C63.11933594 24.03527512 62.17348633 23.90014008 61.19897461 23.76091003 C58.10338442 23.31815104 55.00810558 22.87325732 51.9128418 22.42822266 C49.75407661 22.11884346 47.59530371 21.8095181 45.43652344 21.50024414 C22.61007841 18.22627272 -0.20808357 14.8951915 -23.0246582 11.55322266 C-24.01764269 8.11213393 -23.98861905 6.65747323 -22.3371582 3.42822266 C-22.00329102 2.74501953 -21.66942383 2.06181641 -21.32543945 1.35791016 C-16.31575146 -5.59246778 -6.82766289 -2.0932197 0 0 Z " fill="#FB830A" transform="translate(129.024658203125,74.44677734375)"/>
</svg>
