<?xml version="1.0" standalone="no"?>
<!DOCTYPE svg PUBLIC "-//W3C//DTD SVG 20010904//EN"
 "http://www.w3.org/TR/2001/REC-SVG-20010904/DTD/svg10.dtd">
<svg version="1.0" xmlns="http://www.w3.org/2000/svg"
 width="384.000000pt" height="100.000000pt" viewBox="0 0 384.000000 100.000000"
 preserveAspectRatio="xMidYMid meet">

<g transform="translate(0.000000,100.000000) scale(0.100000,-0.100000)"
fill="#000000" stroke="none">
<path d="M200 831 c-5 -11 -10 -24 -10 -29 0 -5 70 -13 155 -17 85 -4 155 -11
155 -15 0 -15 -18 -21 -23 -8 -2 7 -7 11 -10 8 -8 -7 5 -250 13 -245 9 6 6
-33 -4 -42 -4 -5 -13 -8 -19 -8 -7 0 -12 -7 -12 -15 0 -8 -15 -18 -38 -23 -53
-13 -119 13 -147 57 -25 42 -28 145 -4 181 30 46 -21 88 -60 49 -19 -19 -20
-24 -2 -49 7 -11 16 -53 18 -93 5 -62 10 -79 35 -110 55 -68 127 -88 194 -54
34 17 35 17 36 -1 1 -12 -3 -17 -11 -14 -10 4 -12 -1 -9 -14 3 -10 10 -19 15
-19 6 0 4 -8 -3 -17 -7 -10 -1 -7 13 6 15 13 40 42 55 65 15 22 29 43 30 45 2
2 5 2 8 -1 8 -7 -42 -128 -71 -172 -14 -21 -27 -44 -28 -50 -1 -6 -5 -16 -8
-22 -12 -19 13 -82 36 -88 41 -11 173 -6 184 7 6 6 18 148 28 315 16 272 16
304 3 318 -11 10 -82 24 -220 44 -247 36 -284 37 -299 11z m290 -231 l-8 -55
1 62 c1 34 4 59 8 55 3 -4 3 -32 -1 -62z"/>
<path d="M2439 543 c-1 -120 -3 -244 -5 -276 l-3 -57 65 0 64 0 0 75 c0 41 3
75 8 75 4 0 43 -29 87 -65 l80 -66 42 48 c24 27 43 50 43 53 -1 3 -41 39 -90
80 -49 41 -89 80 -89 86 -1 7 37 59 84 117 95 118 95 112 -12 119 -42 2 -44 1
-89 -62 -68 -95 -67 -96 -60 3 l7 87 -65 0 -66 0 -1 -217z"/>
<path d="M3019 730 c-52 -9 -99 -40 -136 -88 -40 -53 -53 -98 -53 -189 0 -241
190 -336 336 -170 56 64 77 134 73 241 -4 75 -8 89 -34 127 -47 67 -109 93
-186 79z m66 -165 c49 -48 24 -181 -37 -204 -54 -20 -88 24 -88 114 0 49 4 60
29 86 36 35 64 37 96 4z"/>
<path d="M3461 728 c-62 -14 -142 -94 -161 -163 -28 -96 -14 -219 34 -292 63
-96 200 -95 285 2 52 59 74 119 79 211 4 72 1 89 -21 136 -40 90 -117 127
-216 106z m84 -170 c24 -28 27 -39 23 -83 -10 -124 -113 -164 -147 -57 -17 56
-7 107 29 144 37 36 62 36 95 -4z"/>
</g>
</svg>
